<mxfile host="65bd71144e">
    <diagram id="IcrhDsGKaOIWhn6cEPn7" name="Page-1">
        <mxGraphModel dx="994" dy="687" grid="1" gridSize="10" guides="1" tooltips="1" connect="1" arrows="1" fold="1" page="1" pageScale="1" pageWidth="850" pageHeight="1100" math="0" shadow="0">
            <root>
                <mxCell id="0"/>
                <mxCell id="1" parent="0"/>
                <mxCell id="8" style="edgeStyle=none;html=1;exitX=1;exitY=0.5;exitDx=0;exitDy=0;entryX=0;entryY=0.5;entryDx=0;entryDy=0;fontFamily=Verdana;fontSize=16;fontColor=#333333;strokeWidth=2;strokeColor=#333333;startArrow=classic;startFill=1;" parent="1" source="2" target="4" edge="1">
                    <mxGeometry relative="1" as="geometry"/>
                </mxCell>
                <mxCell id="2" value="" style="swimlane;startSize=0;strokeWidth=2;strokeColor=#333333;" parent="1" vertex="1">
                    <mxGeometry x="40" y="417.5" width="130" height="110" as="geometry"/>
                </mxCell>
                <mxCell id="5" value="&lt;div style=&quot;text-align: left&quot;&gt;&lt;span style=&quot;font-size: 16px ; color: rgb(51 , 51 , 51) ; font-family: &amp;#34;verdana&amp;#34;&quot;&gt;structure{&lt;/span&gt;&lt;/div&gt;&lt;font color=&quot;#333333&quot; face=&quot;Verdana&quot;&gt;&lt;div style=&quot;text-align: left&quot;&gt;&lt;span style=&quot;font-size: 16px&quot;&gt;&amp;nbsp; &amp;nbsp;foo: &quot;abc&quot;,&lt;/span&gt;&lt;/div&gt;&lt;div style=&quot;text-align: left&quot;&gt;&lt;span style=&quot;font-size: 16px&quot;&gt;&amp;nbsp; &amp;nbsp;bar: 123,&lt;/span&gt;&lt;/div&gt;&lt;div style=&quot;text-align: left&quot;&gt;&lt;span style=&quot;font-size: 16px&quot;&gt;}&lt;/span&gt;&lt;/div&gt;&lt;/font&gt;" style="text;html=1;align=center;verticalAlign=middle;resizable=0;points=[];autosize=1;strokeColor=none;fillColor=none;" parent="2" vertex="1">
                    <mxGeometry x="5" y="20" width="120" height="70" as="geometry"/>
                </mxCell>
                <mxCell id="4" value="" style="swimlane;startSize=0;strokeWidth=2;strokeColor=#333333;" parent="1" vertex="1">
                    <mxGeometry x="290" y="410" width="137.5" height="125" as="geometry"/>
                </mxCell>
                <mxCell id="3" value="&lt;font color=&quot;#333333&quot; face=&quot;Verdana&quot;&gt;&lt;span style=&quot;font-size: 16px&quot;&gt;{&lt;br&gt;&amp;nbsp; &quot;foo&quot;: &quot;abc&quot;,&lt;br&gt;&amp;nbsp; &quot;bar&quot;: 123,&lt;br&gt;&lt;div&gt;&lt;span&gt;}&lt;/span&gt;&lt;/div&gt;&lt;/span&gt;&lt;/font&gt;" style="text;html=1;align=left;verticalAlign=middle;resizable=0;points=[];autosize=1;strokeColor=none;fillColor=none;" parent="4" vertex="1">
                    <mxGeometry x="7.5" y="22.5" width="130" height="70" as="geometry"/>
                </mxCell>
                <mxCell id="11" value="&lt;font color=&quot;#333333&quot; face=&quot;Verdana&quot;&gt;&lt;span style=&quot;font-size: 16px&quot;&gt;structure&lt;br&gt;type&lt;br&gt;encoding&lt;/span&gt;&lt;/font&gt;" style="text;html=1;align=center;verticalAlign=middle;resizable=0;points=[];autosize=1;strokeColor=none;fillColor=none;" parent="1" vertex="1">
                    <mxGeometry x="180" y="410" width="90" height="50" as="geometry"/>
                </mxCell>
                <mxCell id="12" value="" style="swimlane;startSize=0;strokeWidth=2;strokeColor=#333333;" parent="1" vertex="1">
                    <mxGeometry x="540" y="432.5" width="130" height="80" as="geometry"/>
                </mxCell>
                <mxCell id="13" value="&lt;font color=&quot;#333333&quot; face=&quot;Verdana&quot;&gt;&lt;span style=&quot;font-size: 16px&quot;&gt;[&quot;abc&quot;, 123]&lt;/span&gt;&lt;/font&gt;" style="text;html=1;align=center;verticalAlign=middle;resizable=0;points=[];autosize=1;strokeColor=none;fillColor=none;" parent="12" vertex="1">
                    <mxGeometry x="10" y="30" width="110" height="20" as="geometry"/>
                </mxCell>
                <mxCell id="14" style="edgeStyle=none;html=1;exitX=1;exitY=0.5;exitDx=0;exitDy=0;fontFamily=Verdana;fontSize=16;fontColor=#333333;strokeWidth=2;strokeColor=#333333;entryX=0;entryY=0.5;entryDx=0;entryDy=0;startArrow=classic;startFill=1;" parent="1" source="4" target="12" edge="1">
                    <mxGeometry relative="1" as="geometry">
                        <mxPoint x="200" y="482.5" as="sourcePoint"/>
                        <mxPoint x="500" y="482.5" as="targetPoint"/>
                    </mxGeometry>
                </mxCell>
                <mxCell id="15" value="&lt;font color=&quot;#333333&quot; face=&quot;Verdana&quot;&gt;&lt;span style=&quot;font-size: 16px&quot;&gt;&quot;tuple&quot;&lt;br&gt;transform&lt;/span&gt;&lt;/font&gt;" style="text;html=1;align=center;verticalAlign=middle;resizable=0;points=[];autosize=1;strokeColor=none;fillColor=none;" parent="1" vertex="1">
                    <mxGeometry x="440" y="420" width="90" height="40" as="geometry"/>
                </mxCell>
            </root>
        </mxGraphModel>
    </diagram>
</mxfile>